<?xml version="1.0" encoding="UTF-8" standalone="no"?>
<svg
   id="svg8"
   version="1.1"
   viewBox="0 0 13.640093 13.640094"
   height="13.640094mm"
   width="13.640093mm"
   xmlns="http://www.w3.org/2000/svg"
   xmlns:svg="http://www.w3.org/2000/svg"
   xmlns:rdf="http://www.w3.org/1999/02/22-rdf-syntax-ns#"
   xmlns:cc="http://creativecommons.org/ns#"
   xmlns:dc="http://purl.org/dc/elements/1.1/">
  <defs
     id="defs2">
    <clipPath
       clipPathUnits="userSpaceOnUse"
       id="clipPath4548">
      <path
         id="lpe_path-effect4552"
         style="fill:#fcbf18;fill-opacity:1;stroke:none;stroke-width:0.444235;stroke-linecap:round;stroke-linejoin:round;stroke-miterlimit:4;stroke-dasharray:none;stroke-opacity:1;paint-order:markers stroke fill"
         class="powerclip"
         d="m 173.261,112.49401 h 22.08005 v 22.08004 H 173.261 Z m 10.53514,6.40981 c -0.45317,0 -0.81803,0.36487 -0.81803,0.81804 v 2.48925 h -2.48926 c -0.45317,0 -0.81803,0.36487 -0.81803,0.81804 v 1.00976 c 0,0.45317 0.36486,0.81803 0.81803,0.81803 h 2.48926 v 2.48926 c 0,0.45317 0.36486,0.81803 0.81803,0.81803 h 1.01028 c 0.45317,0 0.81752,-0.36486 0.81752,-0.81803 v -2.48926 h 2.48977 c 0.45317,0 0.81752,-0.36486 0.81752,-0.81803 v -1.00976 c 0,-0.45317 -0.36435,-0.81804 -0.81752,-0.81804 h -2.48977 v -2.48925 c 0,-0.45317 -0.36435,-0.81804 -0.81752,-0.81804 z" />
    </clipPath>
  </defs>
  <metadata
     id="metadata5">
    <rdf:RDF>
      <cc:Work
         rdf:about="">
        <dc:format>image/svg+xml</dc:format>
        <dc:type
           rdf:resource="http://purl.org/dc/dcmitype/StillImage" />
      </cc:Work>
    </rdf:RDF>
  </metadata>
  <g
     transform="translate(-169.12783,-114.88835)"
     id="layer1">
    <path
       id="path862"
       transform="rotate(45,182.32828,112.5381)"
       clip-path="url(#clipPath4548)"
       d="m 190.20875,123.53403 a 5.9077291,5.9077291 0 0 1 -5.90772,5.90773 5.9077291,5.9077291 0 0 1 -5.90773,-5.90773 5.9077291,5.9077291 0 0 1 5.90773,-5.90773 5.9077291,5.9077291 0 0 1 5.90772,5.90773 z"
       style="fill:#f0f0f0;fill-opacity:0.5;stroke:none;stroke-width:0.264583;stroke-linecap:round;stroke-linejoin:round;stroke-miterlimit:4;stroke-dasharray:none;stroke-opacity:1;paint-order:normal" />
  </g>
</svg>
