<?xml version="1.0" encoding="UTF-8" standalone="no"?>
<svg
   xmlns:dc="http://purl.org/dc/elements/1.1/"
   xmlns:cc="http://creativecommons.org/ns#"
   xmlns:rdf="http://www.w3.org/1999/02/22-rdf-syntax-ns#"
   xmlns:svg="http://www.w3.org/2000/svg"
   xmlns="http://www.w3.org/2000/svg"
   xmlns:sodipodi="http://sodipodi.sourceforge.net/DTD/sodipodi-0.dtd"
   xmlns:inkscape="http://www.inkscape.org/namespaces/inkscape"
   version="1.1"
   id="Capa_1"
   x="0px"
   y="0px"
   viewBox="0 0 486.463 486.463"
   style="enable-background:new 0 0 486.463 486.463;"
   xml:space="preserve"
   sodipodi:docname="dark_warning.svg"
   inkscape:version="1.0.2 (e86c8708, 2021-01-15)"><metadata
   id="metadata953"><rdf:RDF><cc:Work
       rdf:about=""><dc:format>image/svg+xml</dc:format><dc:type
         rdf:resource="http://purl.org/dc/dcmitype/StillImage" /><dc:title></dc:title></cc:Work></rdf:RDF></metadata><defs
   id="defs951">
	
</defs><sodipodi:namedview
   pagecolor="#ffffff"
   bordercolor="#666666"
   borderopacity="1"
   objecttolerance="10"
   gridtolerance="10"
   guidetolerance="10"
   inkscape:pageopacity="0"
   inkscape:pageshadow="2"
   inkscape:window-width="1920"
   inkscape:window-height="1147"
   id="namedview949"
   showgrid="false"
   inkscape:zoom="1.4636262"
   inkscape:cx="243.2315"
   inkscape:cy="243.2315"
   inkscape:window-x="1440"
   inkscape:window-y="25"
   inkscape:window-maximized="1"
   inkscape:current-layer="Capa_1" />
<g
   fill="#e600a1"
   stroke="#595959"
   id="g914"
   style="fill:#1e2021;fill-opacity:1;stroke:none"
   transform="matrix(0.9,0,0,0.9,24.323115,24.3232)">
		<path
   d="m 243.225,333.382 c -13.6,0 -25,11.4 -25,25 0,13.6 11.4,25 25,25 13.1,0 25,-11.4 24.4,-24.4 0.6,-14.3 -10.7,-25.6 -24.4,-25.6 z"
   id="path908"
   style="fill:#1e2021;fill-opacity:1;stroke:none" />
		<path
   d="m 474.625,421.982 c 15.7,-27.1 15.8,-59.4 0.2,-86.4 l -156.6,-271.2 c -15.5,-27.3 -43.5,-43.5 -74.9,-43.5 -31.4,0 -59.4,16.3 -74.9,43.4 l -156.8,271.5 c -15.6,27.3 -15.5,59.8 0.3,86.9 15.6,26.8 43.5,42.9 74.7,42.9 h 312.8 c 31.3,0 59.4,-16.3 75.2,-43.6 z m -34,-19.6 c -8.7,15 -24.1,23.9 -41.3,23.9 h -312.8 c -17,0 -32.3,-8.7 -40.8,-23.4 -8.6,-14.9 -8.7,-32.7 -0.1,-47.7 l 156.8,-271.4 c 8.5,-14.9 23.7,-23.7 40.9,-23.7 17.1,0 32.4,8.9 40.9,23.8 l 156.7,271.4 c 8.4,14.6 8.3,32.2 -0.3,47.1 z"
   id="path910"
   style="fill:#1e2021;fill-opacity:1;stroke:none" />
		<path
   d="m 237.025,157.882 c -11.9,3.4 -19.3,14.2 -19.3,27.3 0.6,7.9 1.1,15.9 1.7,23.8 1.7,30.1 3.4,59.6 5.1,89.7 0.6,10.2 8.5,17.6 18.7,17.6 10.2,0 18.2,-7.9 18.7,-18.2 0,-6.2 0,-11.9 0.6,-18.2 1.1,-19.3 2.3,-38.6 3.4,-57.9 0.6,-12.5 1.7,-25 2.3,-37.5 0,-4.5 -0.6,-8.5 -2.3,-12.5 -5.1,-11.2 -17,-16.9 -28.9,-14.1 z"
   id="path912"
   style="fill:#1e2021;fill-opacity:1;stroke:none" />
	</g>
<g
   id="g918">
</g>
<g
   id="g920">
</g>
<g
   id="g922">
</g>
<g
   id="g924">
</g>
<g
   id="g926">
</g>
<g
   id="g928">
</g>
<g
   id="g930">
</g>
<g
   id="g932">
</g>
<g
   id="g934">
</g>
<g
   id="g936">
</g>
<g
   id="g938">
</g>
<g
   id="g940">
</g>
<g
   id="g942">
</g>
<g
   id="g944">
</g>
<g
   id="g946">
</g>
</svg>
