<?xml version="1.0" encoding="UTF-8" standalone="no"?>
<!-- Created with Inkscape (http://www.inkscape.org/) -->

<svg
   width="8.7591896mm"
   height="8.7591934mm"
   viewBox="0 0 8.7591896 8.7591934"
   version="1.1"
   id="svg2557"
   inkscape:version="1.3.2 (091e20ef0f, 2023-11-25)"
   sodipodi:docname="TSL-1128-neutral-icon.svg"
   xmlns:inkscape="http://www.inkscape.org/namespaces/inkscape"
   xmlns:sodipodi="http://sodipodi.sourceforge.net/DTD/sodipodi-0.dtd"
   xmlns="http://www.w3.org/2000/svg"
   xmlns:svg="http://www.w3.org/2000/svg">
  <sodipodi:namedview
     id="namedview2559"
     pagecolor="#505050"
     bordercolor="#ffffff"
     borderopacity="1"
     inkscape:pageshadow="0"
     inkscape:pageopacity="0"
     inkscape:pagecheckerboard="1"
     inkscape:document-units="mm"
     showgrid="false"
     fit-margin-top="0"
     fit-margin-left="0"
     fit-margin-right="0"
     fit-margin-bottom="0"
     inkscape:zoom="14.170864"
     inkscape:cx="15.9835"
     inkscape:cy="16.054067"
     inkscape:window-width="1920"
     inkscape:window-height="1011"
     inkscape:window-x="0"
     inkscape:window-y="0"
     inkscape:window-maximized="1"
     inkscape:current-layer="layer1"
     inkscape:showpageshadow="0"
     inkscape:deskcolor="#505050" />
  <defs
     id="defs2554" />
  <g
     inkscape:label="Layer 1"
     inkscape:groupmode="layer"
     id="layer1"
     transform="translate(-100.8167,-144.33164)">
    <g
       id="g7602"
       transform="matrix(0.4356,0,0,0.4356,54.013626,97.956556)">
      <path
         inkscape:connector-curvature="0"
         id="path7676"
         d="m 115.99651,116.10326 c 0,0 0.007,0.0264 0.2808,-0.23542 0.18801,-0.17952 0.59853,-1.05552 1.73621,-1.47501 1.13769,-0.4195 1.69436,-0.58903 1.69436,-0.58903 l 0.008,-0.008"
         style="fill:none;stroke:#000000;stroke-width:0.0451835px;stroke-linecap:butt;stroke-linejoin:miter;stroke-opacity:1"
         sodipodi:nodetypes="csscc" />
      <path
         inkscape:connector-curvature="0"
         id="path7682"
         d="m 117.55353,117.15231 c 0,0 0.41957,1.13763 0.64555,1.99284 0.22598,0.85522 0.84718,3.23539 0.84718,3.23539 l 0.29051,1.24257 c 0,0 -0.51649,0.49222 -0.45999,0.88752 0.0565,0.3953 0.22598,0.55672 0.22598,0.55672 0,0 0.18555,0.21792 0.25812,0.25821 0.0726,0.0403 0.83111,0.34703 1.82342,-0.0484 0.99232,-0.39543 2.38022,-1.71867 2.17859,-2.23497 -0.20163,-0.51629 -0.20163,-0.3711 -0.20163,-0.3711 l -0.0565,-0.78262 c 0,0 -0.33093,-3.91332 -0.45195,-4.54263 -0.12103,-0.62932 -0.34701,-1.58949 -0.42761,-1.81539 -0.0806,-0.22591 -0.25836,-1.14561 -0.22598,-1.38773 0.0324,-0.24213 0.0811,-1.01664 0.19383,-1.08923 0.11275,-0.0726 1.59745,-0.52441 1.59745,-0.52441 0,0 0.46802,-0.16128 0.60512,-0.71002 0.1371,-0.54874 0.26617,-1.97674 0.18556,-2.24307 -0.0806,-0.26632 0.0161,-0.41949 -0.60513,-0.78261 -0.6212,-0.36313 -1.80735,-0.86344 -2.29949,-0.91184 -0.49213,-0.0484 -0.53279,-0.18561 -1.92033,0.27431 -1.38754,0.45991 -7.50359,2.46885 -7.50359,2.46885 l -0.64531,-0.2985 c 0,0 -0.33873,-0.0161 -0.5406,0.0242 -0.20186,0.0403 -0.4276,0.16939 -0.4276,0.16939 l -0.27444,0.14533 -0.96017,0.16128 -0.40326,0.2985 c 0,0 -0.12097,0.0889 -0.13728,0.25029 -0.0163,0.16141 -0.56494,0.6212 -0.56494,0.6212 l -0.2742,0.29052 c 0,0 -0.0969,0.0404 -0.0485,0.53252 0.0485,0.49209 0.49214,2.83995 0.49214,2.83995 0,0 0.5406,2.54178 0.77461,2.99359 0.23401,0.45181 0.21771,0.54861 0.79872,0.84711 0.58102,0.2985 3.50975,1.63783 3.50975,1.63783 0,0 0.22597,0.0565 0.6212,0 0.39522,-0.0565 0.57274,-0.10491 0.57274,-0.10491 0,0 0.20971,0.0808 0.40355,0.0404 0.19383,-0.0404 0.33116,0.008 0.68596,-0.2743 0.35481,-0.28241 0.64532,-0.55671 0.64532,-0.55671 0,0 0.1371,-0.12898 0.12102,-0.50021 -0.0161,-0.37123 -0.60484,-3.63892 -0.60484,-3.63892 0.23662,-0.25543 0.75035,-0.81001 0.70985,-0.76629"
         style="fill:#2e2e2e;fill-opacity:1;stroke:#000000;stroke-width:0.0451835px;stroke-linecap:butt;stroke-linejoin:miter;stroke-opacity:1"
         sodipodi:nodetypes="csccscsssccsssscsscssccsccccsccccsscscsccccc" />
      <path
         inkscape:connector-curvature="0"
         id="path7686"
         d="m 109.44397,118.05503 c 0,0 0.11299,0.62526 0.44782,0.83102 0.33483,0.20576 2.55359,1.24652 2.55359,1.24652 l 0.54462,0.2501 c 0,0 0.23413,0.0686 0.25824,-0.0322 0.0241,-0.10085 0.0482,-0.13715 -0.21392,-1.31513 -0.26215,-1.17799 -0.718,-3.76397 -0.718,-3.76397 0,0 -0.0324,-0.20576 -0.10495,-0.30255 -0.0726,-0.0968 -0.0565,-0.12093 -0.15731,-0.1815 -0.10082,-0.0606 -0.81078,-0.37921 -0.81078,-0.37921 l -1.72272,-0.79075 -0.89954,-0.45181 c 0,0 -0.20175,-0.0727 -0.13722,0.30655 0.0645,0.3792 0.26628,1.50473 0.26628,1.50473 l 0.31462,1.59359 z"
         style="fill:#dadada;fill-opacity:0.13;stroke:#000000;stroke-width:0.0451835px;stroke-linecap:butt;stroke-linejoin:miter;stroke-opacity:1" />
      <path
         inkscape:connector-curvature="0"
         id="path7690"
         d="m 111.21793,113.14939 -0.0227,-0.67891 c 0,0 0.006,-0.14837 -0.0513,-0.18259 -0.0572,-0.0342 -1.03847,-0.48495 -1.03847,-0.48495 l -0.10263,0.47358 c 0,0 -0.0914,0.25676 0.14826,0.37081 0.23969,0.11404 1.06688,0.50206 1.06688,0.50206 z"
         style="fill:#dadada;fill-opacity:0.66;stroke:#000000;stroke-width:0.0281775;stroke-linecap:butt;stroke-linejoin:miter;stroke-miterlimit:4;stroke-dasharray:none;stroke-opacity:1" />
      <path
         inkscape:connector-curvature="0"
         id="path7692"
         d="m 111.16662,112.24793 -1.50046,-0.71886 c 0,0 -0.10847,-0.0343 -0.17115,0.0171 -0.0627,0.0514 -0.73577,1.02687 -0.31942,1.32359 0.41636,0.29673 2.08229,1.02124 2.08229,1.02124 0,0 0.10848,0.0285 0.0685,-0.12552 -0.0399,-0.154 -0.10848,-0.6161 -0.10848,-0.6161 v 0"
         style="fill:none;stroke:#000000;stroke-width:0.0451835px;stroke-linecap:butt;stroke-linejoin:miter;stroke-opacity:1" />
      <path
         inkscape:connector-curvature="0"
         id="path7694"
         d="m 108.94728,112.59026 c 0,0 0.0971,-0.83292 0.39947,-1.10679 0.30237,-0.27388 0.87283,-0.73025 0.87283,-0.73025"
         style="fill:none;stroke:#000000;stroke-width:0.0451835px;stroke-linecap:butt;stroke-linejoin:miter;stroke-opacity:1" />
      <path
         inkscape:connector-curvature="0"
         id="path7696"
         d="m 108.93591,111.34658 c 0,0 0.0799,-0.1541 0.21679,-0.11414 0.13689,0.04 0.26241,0.13125 0.26241,0.13125"
         style="fill:none;stroke:#000000;stroke-width:0.0451835px;stroke-linecap:butt;stroke-linejoin:miter;stroke-opacity:1" />
      <path
         inkscape:connector-curvature="0"
         id="path7698"
         d="m 109.60917,110.86163 0.23383,0.1084"
         style="fill:none;stroke:#000000;stroke-width:0.0451835px;stroke-linecap:butt;stroke-linejoin:miter;stroke-opacity:1" />
      <path
         inkscape:connector-curvature="0"
         id="path7700"
         d="m 110.65315,110.55353 c 0,0 0.0628,-0.0228 0.14843,0.0114 0.0856,0.0342 1.46051,0.68465 1.46051,0.68465 0,0 0.32509,0.12551 0.35936,0.62184 0.0343,0.49632 0.0456,0.92994 0.0456,0.92994 0,0 -0.10831,0.0798 0.36521,0.25667 0.47352,0.17685 0.75315,0.34232 0.86146,0.54202 0.10831,0.19969 0.18821,0.39375 0.18821,0.39375 l 0.39362,2.08806 c 0,0 0.61057,2.98388 0.69047,3.63995 0.0799,0.65606 0.0343,1.0669 0.0343,1.0669 0,0 0.0318,0.18616 -0.45477,0.24431"
         style="fill:none;stroke:#000000;stroke-width:0.0451835px;stroke-linecap:butt;stroke-linejoin:miter;stroke-opacity:1" />
      <path
         inkscape:connector-curvature="0"
         id="path7702"
         d="m 111.06967,110.38235 1.59757,0.76447 c 0,0 0.2452,0.11978 0.31941,0.58188 0.0742,0.4621 0.0628,0.71313 0.0628,0.71313 0,0 -0.0229,0.0629 0.0684,0.10276 0.0913,0.0399 0.88436,0.41654 0.88436,0.41654 0,0 0.42772,0.2624 0.57615,0.99838 0.14842,0.73598 0.50778,2.55017 0.50778,2.55017 l 0.59337,3.14373 c 0,0 0.0854,0.88415 0.0227,1.0611 -0.0627,0.17694 -0.0568,0.23401 -0.41636,0.27961"
         style="fill:none;stroke:#000000;stroke-width:0.0170773;stroke-linecap:butt;stroke-linejoin:miter;stroke-miterlimit:4;stroke-dasharray:none;stroke-opacity:1" />
      <path
         inkscape:connector-curvature="0"
         id="path7704"
         d="m 111.18383,110.35384 1.54609,0.75309 c 0,0 0.27395,0.25103 0.32526,0.65606 0.0513,0.40504 0.0507,0.65831 0.0507,0.65831 0,0 0.008,0.0542 0.0399,0.0656 0.0314,0.0114 0.7417,0.35375 0.7417,0.35375 0,0 0.3566,0.16542 0.51347,0.47352 0.15686,0.3081 0.24244,0.61902 0.24244,0.61902 l 0.57055,2.93538 0.44216,2.2479 c 0,0 0.117,0.65041 0.117,0.80446 0,0.15404 0.0371,0.78157 -0.0371,0.86431 -0.0742,0.0827 -0.10555,0.11983 -0.10555,0.11983"
         style="fill:none;stroke:#000000;stroke-width:0;stroke-linecap:butt;stroke-linejoin:miter;stroke-miterlimit:4;stroke-dasharray:none;stroke-opacity:1" />
      <path
         inkscape:connector-curvature="0"
         id="path7704-3"
         d="m 111.40397,107.53393 1.54609,0.75309 c 0,0 0.27395,0.25103 0.32526,0.65607 0.0513,0.40503 0.0507,0.65831 0.0507,0.65831 0,0 0.008,0.0542 0.0399,0.0656 0.0314,0.0114 0.7417,0.35374 0.7417,0.35374 0,0 0.35661,0.16543 0.51347,0.47353 0.15686,0.3081 0.24244,0.61902 0.24244,0.61902 l 0.57055,2.93537 0.44216,2.2479 c 0,0 0.117,0.65041 0.117,0.80446 0,0.15405 0.0371,0.78158 -0.0371,0.86432 -0.0742,0.0827 -0.10555,0.11982 -0.10555,0.11982"
         style="fill:none;stroke:#000000;stroke-width:0;stroke-linecap:butt;stroke-linejoin:miter;stroke-miterlimit:4;stroke-dasharray:none;stroke-opacity:1" />
      <path
         inkscape:connector-curvature="0"
         id="path7702-6"
         d="m 111.12608,110.36182 1.59756,0.76447 c 0,0 0.24521,0.11978 0.31942,0.58188 0.0742,0.4621 0.0628,0.71313 0.0628,0.71313 0,0 -0.0229,0.0629 0.0684,0.10277 0.0913,0.0399 0.88437,0.41653 0.88437,0.41653 0,0 0.42772,0.2624 0.57615,0.99838 0.14842,0.73598 0.50778,2.55017 0.50778,2.55017 l 0.59336,3.14373 c 0,0 0.0854,0.88415 0.0227,1.0611 -0.0627,0.17694 -0.0568,0.23401 -0.41635,0.27961"
         style="fill:none;stroke:#000000;stroke-width:0.0170773;stroke-linecap:butt;stroke-linejoin:miter;stroke-miterlimit:4;stroke-dasharray:none;stroke-opacity:1" />
      <path
         inkscape:connector-curvature="0"
         id="path7736"
         d="m 112.25264,110.6247 0.91179,0.42775 c 0,0 0.37939,0.37921 0.47607,0.53252 0.0967,0.1533 0.27419,0.53251 0.27419,0.53251 l 0.87957,0.40341 c 0,0 0.45975,0.0564 0.63727,0.95201 0.17752,0.89564 0.56498,2.63036 0.56498,2.63036"
         style="fill:none;stroke:#000000;stroke-width:0.0451835px;stroke-linecap:butt;stroke-linejoin:miter;stroke-opacity:1" />
      <path
         sodipodi:nodetypes="cssccc"
         inkscape:connector-curvature="0"
         id="path7740"
         d="m 116.22162,115.89929 c 0,0 0.0766,-0.0605 0.06,-0.64159 -0.0111,-0.38926 -0.19263,-1.00349 0.22958,-1.22594 0.42221,-0.22245 0.59457,-0.24338 0.59457,-0.24338 l 7.15435,-2.36194 c 0,0 0.16547,-0.097 0.19405,-0.13699"
         style="fill:none;stroke:#000000;stroke-width:0.0111002;stroke-linecap:butt;stroke-linejoin:miter;stroke-miterlimit:4;stroke-dasharray:none;stroke-opacity:1" />
      <path
         sodipodi:nodetypes="cscccccc"
         inkscape:connector-curvature="0"
         id="path7757"
         d="m 116.22162,115.89929 c 0,0 0.17502,0.0991 0.0913,-0.82718 -0.0191,-0.211 -0.0466,-0.4228 -0.0466,-0.4228 0,0 -0.0105,-0.47302 0.32039,-0.60991 0.33095,-0.13689 2.25361,-0.75299 2.25361,-0.75299 l 5.27733,-1.70026 c 0,0 0.2452,-0.10277 0.2681,-0.13125 0.0229,-0.0285 0.0856,-0.0342 0.0856,-0.0342"
         style="fill:none;stroke:#000000;stroke-width:0.0111002;stroke-linecap:butt;stroke-linejoin:miter;stroke-miterlimit:4;stroke-dasharray:none;stroke-opacity:1" />
      <path
         inkscape:connector-curvature="0"
         id="path7759"
         d="m 116.45908,113.08027 c 0,0 -0.16139,0.004 -0.17953,0.22593 -0.0181,0.22189 0.20169,0.0928 0.20169,0.0928 0,0 0.0907,-0.0706 0.0948,-0.19768 0.004,-0.12708 -0.11695,-0.12103 -0.11695,-0.12103 z"
         style="fill:#0083b5;fill-opacity:1;stroke:#000000;stroke-width:0.0451835px;stroke-linecap:butt;stroke-linejoin:miter;stroke-opacity:1" />
      <path
         inkscape:connector-curvature="0"
         id="path7759-5"
         d="m 117.27104,112.8212 c 0,0 -0.16139,0.004 -0.17953,0.22593 -0.0181,0.22188 0.20169,0.0928 0.20169,0.0928 0,0 0.0907,-0.0706 0.0948,-0.19768 0.004,-0.12708 -0.11695,-0.12103 -0.11695,-0.12103 z"
         style="fill:#f8b53c;fill-opacity:1;stroke:#000000;stroke-width:0.0451835px;stroke-linecap:butt;stroke-linejoin:miter;stroke-opacity:1" />
      <path
         inkscape:connector-curvature="0"
         id="path7785"
         d="m 115.37387,113.15493 8.89253,-2.89326 c 0,0 0.29051,-0.16939 0.29855,-0.21779"
         style="fill:none;stroke:#000000;stroke-width:0.0281775;stroke-linecap:butt;stroke-linejoin:miter;stroke-miterlimit:4;stroke-dasharray:none;stroke-opacity:1" />
      <path
         inkscape:connector-curvature="0"
         id="path7787"
         d="m 115.94802,113.06944 8.30556,-2.71983 c 0,0 0.20511,-0.0816 0.25824,-0.19366"
         style="fill:none;stroke:#000000;stroke-width:0.0281775;stroke-linecap:butt;stroke-linejoin:miter;stroke-miterlimit:4;stroke-dasharray:none;stroke-opacity:1" />
      <path
         inkscape:connector-curvature="0"
         id="path7789"
         d="m 115.41423,113.20535 0.48611,-0.1795"
         style="fill:none;stroke:#000000;stroke-width:0.0111002;stroke-linecap:butt;stroke-linejoin:miter;stroke-miterlimit:4;stroke-dasharray:none;stroke-opacity:1" />
      <path
         inkscape:connector-curvature="0"
         id="path7791"
         d="m 115.98505,113.11457 8.34372,-2.70373 c 0,0 0.10246,-0.0571 0.16531,-0.10267 0.0628,-0.0456 0.0177,-0.15222 0.0177,-0.15222"
         style="fill:none;stroke:#000000;stroke-width:0.0451835px;stroke-linecap:butt;stroke-linejoin:miter;stroke-opacity:1" />
      <path
         inkscape:connector-curvature="0"
         id="path7793"
         d="m 122.8219,108.86975 -1.31217,-0.62184 c 0,0 -0.18261,-0.0343 -0.19397,0.0142 -0.0114,0.0485 -0.0342,0.0628 0.12268,0.13407 0.15686,0.0713 1.20662,0.57338 1.20662,0.57338 0,0 0.17107,0.0143 0.17968,-0.006 0.009,-0.02 0.0285,-0.077 -0.003,-0.0942 z"
         style="fill:#050f14;fill-opacity:0.66;stroke:#000000;stroke-width:0.0451835px;stroke-linecap:butt;stroke-linejoin:miter;stroke-opacity:1" />
      <path
         inkscape:connector-curvature="0"
         id="path7799"
         d="m 113.32083,111.18058 0.16547,0.1775 c 0,0 0.38305,0.18555 0.51223,0.25416 0.12918,0.0686 0.46802,-0.0121 0.46802,-0.0121 l 0.36308,-0.13716 -0.0928,-0.0726 -0.0525,-0.0807 -0.83099,-0.37921 c 0,0 -0.12114,-0.008 -0.19371,0.0282 -0.0726,0.0363 -0.0888,0.0564 -0.0888,0.0564 l -0.0121,0.0928 z"
         style="fill:#f3cb4f;fill-opacity:1;stroke:#000000;stroke-width:0.0281775;stroke-linecap:butt;stroke-linejoin:miter;stroke-miterlimit:4;stroke-dasharray:none;stroke-opacity:1" />
      <path
         inkscape:connector-curvature="0"
         id="path7801"
         d="m 113.55886,111.10797 0.31864,0.0968 0.36308,0.1775 0.2138,0.13716"
         style="fill:none;stroke:#000000;stroke-width:0.0111002;stroke-linecap:butt;stroke-linejoin:miter;stroke-miterlimit:4;stroke-dasharray:none;stroke-opacity:1" />
      <path
         inkscape:connector-curvature="0"
         id="path7803"
         d="m 113.57092,111.01517 0.50833,0.15331 c 0,0 0.32277,0.16939 0.41153,0.2501 0.0888,0.0807 0.0282,0.0323 0.0282,0.0323 l 0.006,0.0923 0.004,-0.0101"
         style="fill:none;stroke:#000000;stroke-width:0.0281775;stroke-linecap:butt;stroke-linejoin:miter;stroke-miterlimit:4;stroke-dasharray:none;stroke-opacity:1" />
      <path
         inkscape:connector-curvature="0"
         id="path7805"
         d="m 114.51903,111.45089 0.17502,-0.067 0.0428,0.007 -0.009,0.0883"
         style="fill:none;stroke:#000000;stroke-width:0.0281775;stroke-linecap:butt;stroke-linejoin:miter;stroke-miterlimit:4;stroke-dasharray:none;stroke-opacity:1" />
      <path
         inkscape:connector-curvature="0"
         id="path7807"
         d="m 113.14293,111.00062 0.61925,-0.19968 c 0,0 0.24005,-0.0867 0.43973,0.0202 0.19968,0.1069 0.87536,0.41953 0.87536,0.41953 0,0 0.11305,0.0948 -0.0121,0.14121 -0.12511,0.0464 -0.23559,0.0811 -0.23559,0.0811"
         style="fill:none;stroke:#000000;stroke-width:0.0451835px;stroke-linecap:butt;stroke-linejoin:miter;stroke-opacity:1" />
      <path
         inkscape:connector-curvature="0"
         id="path7809"
         d="m 117.84884,117.23564 c 0,0 0.62747,1.77997 0.73009,2.17936 0.10263,0.39939 1.01557,3.87941 1.0841,4.14191 0.0685,0.2625 0.13673,0.66198 0.13673,0.66198 0,0 0.0799,0.0115 -0.12536,0.2625 -0.20525,0.25103 -0.35368,0.51316 -0.33095,0.68446"
         style="fill:none;stroke:#000000;stroke-width:0.0451835px;stroke-linecap:butt;stroke-linejoin:miter;stroke-opacity:1" />
      <path
         inkscape:connector-curvature="0"
         id="path7811"
         d="m 117.9742,114.42851 c 0,0 2.01978,-0.46746 2.2023,-0.50187 0.18252,-0.0344 1.74566,-0.59364 1.81419,-0.63914"
         style="fill:none;stroke:#000000;stroke-width:0.062332;stroke-linecap:butt;stroke-linejoin:miter;stroke-miterlimit:4;stroke-dasharray:none;stroke-opacity:1" />
      <path
         sodipodi:nodetypes="ccccsccccc"
         inkscape:connector-curvature="0"
         id="path7678"
         d="m 116.70635,115.33686 c 0,0 0.1293,0.18548 0.2664,0.9923 0.0324,0.83102 0.7583,0.82304 0.7583,0.82304 l 0.33897,-0.008 c 0,0 0.32266,0.0161 0.38719,-0.17751 0.0645,-0.19359 0.0163,-0.30648 -0.0241,-0.5244 -0.0404,-0.21793 -0.35504,-1.17792 -0.48411,-1.35542 -0.12906,-0.17751 -0.51648,-0.41152 -0.51648,-0.41152 0,0 -0.64555,0.52454 -0.72616,0.66162 z"
         style="fill:#f3cb4f;fill-opacity:1;stroke:#000000;stroke-width:0.0451835px;stroke-linecap:butt;stroke-linejoin:miter;stroke-opacity:1" />
      <path
         inkscape:connector-curvature="0"
         id="path7672"
         d="m 114.75544,110.46219 5.78487,-1.87135 c 0,0 0.291,-0.0514 0.41084,0 0.11984,0.0514 0.91278,0.43362 0.91278,0.43362 0,0 0.23383,0.0969 -0.0742,0.19396 -0.30805,0.097 -5.75061,1.85988 -5.75061,1.85988 0,0 -0.21111,0.0343 -0.36521,-0.006 -0.15411,-0.04 -0.98131,-0.46784 -0.98131,-0.46784 0,0 -0.0685,-0.0971 0.0456,-0.13698"
         style="fill:#dadada;fill-opacity:0.66;stroke:#000000;stroke-width:0.0451835px;stroke-linecap:butt;stroke-linejoin:miter;stroke-opacity:1" />
    </g>
  </g>
</svg>
