<?xml version="1.0" encoding="UTF-8" standalone="no"?>
<svg
   version="1.1"
   viewBox="0 -256 1792 1792"
   id="svg1173"
   sodipodi:docname="add_icon_dark.svg"
   inkscape:version="1.3.2 (091e20ef0f, 2023-11-25)"
   xmlns:inkscape="http://www.inkscape.org/namespaces/inkscape"
   xmlns:sodipodi="http://sodipodi.sourceforge.net/DTD/sodipodi-0.dtd"
   xmlns="http://www.w3.org/2000/svg"
   xmlns:svg="http://www.w3.org/2000/svg"
   xmlns:rdf="http://www.w3.org/1999/02/22-rdf-syntax-ns#"
   xmlns:cc="http://creativecommons.org/ns#"
   xmlns:dc="http://purl.org/dc/elements/1.1/">
  <metadata
     id="metadata1179">
    <rdf:RDF>
      <cc:Work
         rdf:about="">
        <dc:format>image/svg+xml</dc:format>
        <dc:type
           rdf:resource="http://purl.org/dc/dcmitype/StillImage" />
      </cc:Work>
    </rdf:RDF>
  </metadata>
  <defs
     id="defs1177">
    <clipPath
       clipPathUnits="userSpaceOnUse"
       id="clipPath4548">
      <path
         id="lpe_path-effect4552"
         style="fill:#fcbf18;fill-opacity:1;stroke:none;stroke-width:0.444235;stroke-linecap:round;stroke-linejoin:round;stroke-miterlimit:4;stroke-dasharray:none;stroke-opacity:1;paint-order:markers stroke fill"
         class="powerclip"
         d="m 173.261,112.49401 h 22.08005 v 22.08004 H 173.261 Z m 10.53514,6.40981 c -0.45317,0 -0.81803,0.36487 -0.81803,0.81804 v 2.48925 h -2.48926 c -0.45317,0 -0.81803,0.36487 -0.81803,0.81804 v 1.00976 c 0,0.45317 0.36486,0.81803 0.81803,0.81803 h 2.48926 v 2.48926 c 0,0.45317 0.36486,0.81803 0.81803,0.81803 h 1.01028 c 0.45317,0 0.81752,-0.36486 0.81752,-0.81803 v -2.48926 h 2.48977 c 0.45317,0 0.81752,-0.36486 0.81752,-0.81803 v -1.00976 c 0,-0.45317 -0.36435,-0.81804 -0.81752,-0.81804 h -2.48977 v -2.48925 c 0,-0.45317 -0.36435,-0.81804 -0.81752,-0.81804 z" />
    </clipPath>
  </defs>
  <sodipodi:namedview
     pagecolor="#ffffff"
     bordercolor="#666666"
     borderopacity="1"
     objecttolerance="10"
     gridtolerance="10"
     guidetolerance="10"
     inkscape:pageopacity="0"
     inkscape:pageshadow="2"
     inkscape:window-width="1920"
     inkscape:window-height="1080"
     id="namedview1175"
     showgrid="false"
     inkscape:zoom="0.37849334"
     inkscape:cx="837.53124"
     inkscape:cy="837.53124"
     inkscape:window-x="0"
     inkscape:window-y="0"
     inkscape:window-maximized="1"
     inkscape:current-layer="svg1173"
     inkscape:showpageshadow="0"
     inkscape:pagecheckerboard="0"
     inkscape:deskcolor="#505050" />
  <path
     id="path862"
     transform="matrix(94.488187,0,0,94.488187,-16518.27,-11012.507)"
     clip-path="url(#clipPath4548)"
     d="m 190.20875,123.53403 a 5.9077291,5.9077291 0 0 1 -5.90772,5.90773 5.9077291,5.9077291 0 0 1 -5.90773,-5.90773 5.9077291,5.9077291 0 0 1 5.90773,-5.90773 5.9077291,5.9077291 0 0 1 5.90772,5.90773 z"
     style="fill:#bfbf18;fill-opacity:0.85000002;stroke:none;stroke-width:0.264583;stroke-linecap:round;stroke-linejoin:round;stroke-miterlimit:4;stroke-dasharray:none;stroke-opacity:1;paint-order:normal" />
</svg>
